HIERARCHY
ROOT Hips
{
	OFFSET 0.000000 0.000000 0.000000
	CHANNELS 6 Xposition Yposition Zposition Zrotation Yrotation Xrotation 
	JOINT LowerBack
	{
		OFFSET 0.000000 0.000000 0.000000
		CHANNELS 3 Zrotation Yrotation Xrotation
		JOINT Spine
		{
			OFFSET 0.028270 2.035590 -0.193380
			CHANNELS 3 Zrotation Yrotation Xrotation
			JOINT Spine1
			{
				OFFSET 0.056720 2.048850 -0.042750
				CHANNELS 3 Zrotation Yrotation Xrotation
				JOINT Neck
				{
					OFFSET 0.000000 0.000000 0.000000
					CHANNELS 3 Zrotation Yrotation Xrotation
					JOINT Neck1
					{
						OFFSET -0.054170 1.746240 0.172020
						CHANNELS 3 Zrotation Yrotation Xrotation
						JOINT Head
						{
							OFFSET 0.104070 1.761360 -0.123970
							CHANNELS 3 Zrotation Yrotation Xrotation
							End Site
							{
								OFFSET 0.000000 0.000000 0.000000
							}
						}
					}
				}
				JOINT LeftShoulder
				{
					OFFSET 0.000000 0.000000 0.000000
					CHANNELS 3 Zrotation Yrotation Xrotation
					JOINT LeftArm
					{
						OFFSET 3.362410 1.200890 -0.311210
						CHANNELS 3 Zrotation Yrotation Xrotation
						JOINT LeftForeArm
						{
							OFFSET 4.983000 -0.000000 -0.000000
							CHANNELS 3 Zrotation Yrotation Xrotation
							JOINT LeftHand
							{
								OFFSET 3.483560 -0.000000 -0.000000
								CHANNELS 3 Zrotation Yrotation Xrotation
								JOINT LeftFingerBase
								{
									OFFSET 0.000000 0.000000 0.000000
									CHANNELS 3 Zrotation Yrotation Xrotation
									JOINT LeftHandIndex1
									{
										OFFSET 0.715260 -0.000000 -0.000000
										CHANNELS 3 Zrotation Yrotation Xrotation
										End Site
										{
											OFFSET 0.000000 0.000000 0.000000
										}
									}
								}
								JOINT LThumb
								{
									OFFSET 0.000000 0.000000 0.000000
									CHANNELS 3 Zrotation Yrotation Xrotation
									End Site
									{
										OFFSET 0.000000 0.000000 0.000000
									}
								}
							}
						}
					}
				}
				JOINT RightShoulder
				{
					OFFSET 0.000000 0.000000 0.000000
					CHANNELS 3 Zrotation Yrotation Xrotation
					JOINT RightArm
					{
						OFFSET -3.136600 1.374050 -0.404650
						CHANNELS 3 Zrotation Yrotation Xrotation
						JOINT RightForeArm
						{
							OFFSET -5.241900 -0.000000 -0.000000
							CHANNELS 3 Zrotation Yrotation Xrotation
							JOINT RightHand
							{
								OFFSET -3.444170 -0.000000 -0.000000
								CHANNELS 3 Zrotation Yrotation Xrotation
								JOINT RightFingerBase
								{
									OFFSET 0.000000 0.000000 0.000000
									CHANNELS 3 Zrotation Yrotation Xrotation
									JOINT RightHandIndex1
									{
										OFFSET -0.622530 -0.000000 -0.000000
										CHANNELS 3 Zrotation Yrotation Xrotation
										End Site
										{
											OFFSET 0.000000 0.000000 0.000000
										}
									}
								}
								JOINT RThumb
								{
									OFFSET 0.000000 0.000000 0.000000
									CHANNELS 3 Zrotation Yrotation Xrotation
									End Site
									{
										OFFSET 0.000000 0.000000 0.000000
									}
								}
							}
						}
					}
				}
			}
		}
	}
}
}
MOTION
Frames: 10
Frame Time: 0.008333
5.427323 17.418129 2.361062 166.458506 -84.531095 -149.370556 -0.636126 -1.708771 -3.951666 -1.081787 -1.875738 -3.825350 -7.843418 -2.032936 -0.048322 10.825108 -2.516723 -5.610999 -4.612286 -0.364405 0.477925 0.000000 0.000000 0.000000 -4.456799 3.817606 2.085149 -63.685280 -11.497774 17.427973 -2.880198 -38.171330 -0.008853 5.477834 0.012736 -0.003937 -0.118464 0.114647 0.000000 0.000000 0.000000 0.000000 0.000000 0.000000 0.000000 20.855763 -0.507270 1.614106 70.918185 4.127755 -3.255232 3.387996 12.327927 0.006627 -1.764441 5.549557 -0.090510 0.085595 -0.079180 0.000000 0.000000 0.000000 0.000000 0.000000 0.000000 0.000000 
5.169368 17.422386 2.369296 168.588761 -84.676901 -151.692036 -0.146242 -1.812824 -3.783398 -0.970504 -2.012608 -3.785950 -7.845308 -2.161656 -0.029375 10.738974 -2.744339 -5.635471 -4.584780 -0.361908 0.475237 0.000000 0.000000 0.000000 -4.452843 3.685447 2.033777 -63.242587 -12.326655 17.951347 -2.794740 -40.346754 -0.009832 5.523594 -0.033803 -0.006744 -0.123700 0.126816 0.000000 0.000000 0.000000 0.000000 0.000000 0.000000 0.000000 20.642607 -0.852116 1.671324 70.252479 2.930358 -4.046410 3.486327 11.595837 0.006715 -1.693339 5.221633 -0.082038 0.089480 -0.072997 0.000000 0.000000 0.000000 0.000000 0.000000 0.000000 0.000000 
4.910593 17.417624 2.374717 169.719151 -84.899895 -153.012990 0.252919 -1.940993 -3.635082 -0.876643 -2.165321 -3.750254 -7.842971 -2.306329 -0.013718 10.660686 -3.001752 -5.654595 -4.556414 -0.359488 0.474215 0.000000 0.000000 0.000000 -4.415810 3.497521 1.986319 -62.735700 -13.145479 18.447653 -2.707980 -42.500121 -0.010913 5.573135 -0.061100 -0.008750 -0.128954 0.139424 0.000000 0.000000 0.000000 0.000000 0.000000 0.000000 0.000000 20.437128 -1.234142 1.722721 69.575008 1.709487 -4.772934 3.576852 10.948064 0.006784 -1.670000 4.958159 -0.077065 0.093406 -0.067366 0.000000 0.000000 0.000000 0.000000 0.000000 0.000000 0.000000 
4.650983 17.404195 2.376858 169.714059 -85.196368 -153.195155 0.550905 -2.090166 -3.507961 -0.802942 -2.330417 -3.718136 -7.836796 -2.463414 -0.000246 10.592961 -3.290146 -5.670609 -4.527432 -0.357146 0.474175 0.000000 0.000000 0.000000 -4.344509 3.258025 1.942710 -62.168100 -13.965031 18.905571 -2.620325 -44.608173 -0.012084 5.625819 -0.075651 -0.010155 -0.134166 0.152378 0.000000 0.000000 0.000000 0.000000 0.000000 0.000000 0.000000 20.244331 -1.652416 1.768542 68.895071 0.465442 -5.457582 3.659359 10.381432 0.006869 -1.686035 4.764140 -0.074790 0.097261 -0.062288 0.000000 0.000000 0.000000 0.000000 0.000000 0.000000 0.000000 
4.391110 17.382639 2.375583 168.413492 -85.555024 -152.092029 0.745456 -2.256926 -3.382920 -0.750500 -2.504012 -3.681898 -7.826446 -2.628021 0.026421 10.541133 -3.674904 -5.708932 -4.496144 -0.354511 0.467986 0.000000 0.000000 0.000000 -4.239069 2.996335 1.896361 -61.552129 -14.836285 19.323779 -2.532941 -46.632069 -0.013308 5.680658 -0.088964 -0.011462 -0.139322 0.165569 0.000000 0.000000 0.000000 0.000000 0.000000 0.000000 0.000000 20.075418 -2.172353 1.807967 68.196720 -0.719015 -5.907680 3.732491 9.882588 0.006967 -1.774594 4.625180 -0.076413 0.101296 -0.057457 0.000000 0.000000 0.000000 0.000000 0.000000 0.000000 0.000000 
4.130615 17.353457 2.370363 165.391332 -85.969092 -149.267274 0.834155 -2.440852 -3.273700 -0.720666 -2.686347 -3.649081 -7.811894 -2.801250 0.047894 10.501559 -4.074413 -5.742206 -4.464226 -0.351958 0.463148 0.000000 0.000000 0.000000 -4.089867 2.680227 1.854218 -60.897050 -15.702171 19.669680 -2.444339 -48.576438 -0.014587 5.735983 -0.100759 -0.012870 -0.144193 0.178980 0.000000 0.000000 0.000000 0.000000 0.000000 0.000000 0.000000 19.919326 -2.708812 1.844176 67.517425 -1.932808 -6.388685 3.798257 9.451576 0.007125 -1.873868 4.547408 -0.079234 0.105024 -0.053138 0.000000 0.000000 0.000000 0.000000 0.000000 0.000000 0.000000 
3.869648 17.317258 2.361155 160.178979 -86.423577 -144.256212 0.830944 -2.640904 -3.170260 -0.710711 -2.877560 -3.616083 -7.792647 -2.982790 0.071581 10.475932 -4.513748 -5.782209 -4.430503 -0.349277 0.456363 0.000000 0.000000 0.000000 -3.895168 2.326191 1.812232 -60.219544 -16.580603 19.938653 -2.355049 -50.417674 -0.015903 5.791357 -0.117200 -0.014483 -0.148711 0.192544 0.000000 0.000000 0.000000 0.000000 0.000000 0.000000 0.000000 19.778150 -3.287175 1.877315 66.853499 -3.134401 -6.828414 3.856979 9.074477 0.007333 -1.989040 4.512806 -0.083252 0.108557 -0.049153 0.000000 0.000000 0.000000 0.000000 0.000000 0.000000 0.000000 
3.608195 17.274744 2.347998 152.236327 -86.891499 -136.519188 0.763293 -2.852795 -3.067488 -0.713552 -3.075990 -3.582112 -7.768635 -3.171359 0.097751 10.463504 -4.986677 -5.829559 -4.394427 -0.346398 0.447425 0.000000 0.000000 0.000000 -3.652981 1.939564 1.768368 -59.537171 -17.465328 20.121055 -2.264892 -52.144124 -0.017249 5.847599 -0.141229 -0.016499 -0.152761 0.206222 0.000000 0.000000 0.000000 0.000000 0.000000 0.000000 0.000000 19.648123 -3.899412 1.908829 66.209797 -4.315022 -7.244982 3.909761 8.738961 0.007579 -2.107314 4.504712 -0.087972 0.111892 -0.045460 -0.000000 0.000000 0.000000 0.000000 0.000000 0.000000 0.000000 
3.346189 17.226637 2.331123 141.356241 -87.312211 -125.851348 0.662374 -3.061945 -2.959559 -0.719165 -3.270121 -3.546206 -7.740058 -3.356543 0.125535 10.462964 -5.484261 -5.883912 -4.355277 -0.343238 0.436384 0.000000 0.000000 0.000000 -3.364255 1.531299 1.719545 -58.868162 -18.345591 20.209720 -2.173400 -53.748338 -0.018618 5.906266 -0.174245 -0.019125 -0.156183 0.219915 0.000000 0.000000 0.000000 0.000000 0.000000 0.000000 0.000000 19.523299 -4.530254 1.940627 65.589632 -5.464790 -7.658768 3.957681 8.431978 0.007839 -2.216569 4.505410 -0.092387 0.115046 -0.042076 -0.000000 0.000000 0.000000 0.000000 0.000000 0.000000 0.000000 
3.083290 17.173731 2.310730 128.267938 -87.591614 -112.982275 0.529848 -3.247876 -2.846784 -0.724388 -3.440055 -3.509676 -7.706619 -3.519843 0.147871 10.470140 -5.969389 -5.935613 -4.313196 -0.339868 0.425802 0.000000 0.000000 0.000000 -3.032970 1.115460 1.665451 -58.223143 -19.198935 20.202619 -2.080343 -55.230615 -0.020023 5.971971 -0.214527 -0.022157 -0.158865 0.233443 -0.000000 0.000000 0.000000 0.000000 0.000000 0.000000 0.000000 19.394098 -5.132187 1.974294 65.005886 -6.600859 -8.187782 4.002441 8.133726 0.008104 -2.289692 4.508981 -0.095402 0.117933 -0.039216 -0.000000 0.000000 0.000000 0.000000 0.000000 0.000000 0.000000 
